<!DOCTYPE svg PUBLIC "-//W3C//DTD SVG 1.1//EN" "http://www.w3.org/Graphics/SVG/1.1/DTD/svg11.dtd">
<!-- Uploaded to: SVG Repo, www.svgrepo.com, Transformed by: SVG Repo Mixer Tools -->
<svg fill="#000000" height="64px" width="64px" version="1.1" id="Layer_1" xmlns="http://www.w3.org/2000/svg" xmlns:xlink="http://www.w3.org/1999/xlink" viewBox="0 0 507.9 507.9" xml:space="preserve">
<g id="SVGRepo_bgCarrier" stroke-width="0"/>
<g id="SVGRepo_tracerCarrier" stroke-linecap="round" stroke-linejoin="round"/>
<g id="SVGRepo_iconCarrier"> <g> <g> <path d="M465.7,78.25H42.3c-23.3,0-42.3,19-42.3,42.3v163.2c0,23.3,19,42.3,42.3,42.3h423.3c23.3,0,42.3-19,42.3-42.3v-163.2 C508,97.25,489,78.25,465.7,78.25z M28.2,120.55c0-7.8,6.3-14.1,14.1-14.1h423.3c7.8,0,14.1,6.3,14.1,14.1v111.7H28.2V120.55z M479.8,283.85L479.8,283.85c0,7.8-6.3,14.1-14.1,14.1H42.3c-7.8,0-14.1-6.3-14.1-14.1v-23.3h451.6V283.85z"/> </g> </g> <g> <g> <path d="M426.6,126.85H81.4c-7.8,0-14.1,6.3-14.1,14.1s6.3,14.1,14.1,14.1h345.3c7.8,0,14.1-6.3,14.1-14.1 S434.4,126.85,426.6,126.85z"/> </g> </g> <g> <g> <path d="M426.6,183.25H81.4c-7.8,0-14.1,6.3-14.1,14.1c0,7.8,6.3,14.1,14.1,14.1h345.3c7.8,0,14.1-6.3,14.1-14.1 C440.8,189.55,434.4,183.25,426.6,183.25z"/> </g> </g> <g> <g> <path d="M89.8,357.75c-7.8,0-14.1,6.3-14.1,14.1v43.7c0,7.8,6.3,14.1,14.1,14.1c7.8,0,14.1-6.3,14.1-14.1v-43.7 C103.9,364.05,97.6,357.75,89.8,357.75z"/> </g> </g> <g> <g> <path d="M199.3,357.75c-7.8,0-14.1,6.3-14.1,14.1v43.7c0,7.8,6.3,14.1,14.1,14.1c7.8,0,14.1-6.3,14.1-14.1v-43.7 C213.4,364.05,207.1,357.75,199.3,357.75z"/> </g> </g> <g> <g> <path d="M308.7,357.75c-7.8,0-14.1,6.3-14.1,14.1v43.7c0,7.8,6.3,14.1,14.1,14.1c7.8,0,14.1-6.3,14.1-14.1v-43.7 C322.9,364.05,316.5,357.75,308.7,357.75z"/> </g> </g> <g> <g> <path d="M418.2,357.75c-7.8,0-14.1,6.3-14.1,14.1v43.7c0,7.8,6.3,14.1,14.1,14.1s14.1-6.3,14.1-14.1v-43.7 C432.3,364.05,426,357.75,418.2,357.75z"/> </g> </g> </g>
</svg>