<!DOCTYPE svg PUBLIC "-//W3C//DTD SVG 1.1//EN" "http://www.w3.org/Graphics/SVG/1.1/DTD/svg11.dtd">
<!-- Uploaded to: SVG Repo, www.svgrepo.com, Transformed by: SVG Repo Mixer Tools -->
<svg fill="#000000" height="64px" width="64px" version="1.1" id="Layer_1" xmlns="http://www.w3.org/2000/svg" xmlns:xlink="http://www.w3.org/1999/xlink" viewBox="0 0 508 508" xml:space="preserve">
<g id="SVGRepo_bgCarrier" stroke-width="0"/>
<g id="SVGRepo_tracerCarrier" stroke-linecap="round" stroke-linejoin="round"/>
<g id="SVGRepo_iconCarrier"> <g> <g> <path d="M254,0C113.9,0,0,113.9,0,254s113.9,254,254,254s254-113.9,254-254S394.1,0,254,0z M254,479.8 C129.5,479.8,28.2,378.5,28.2,254S129.5,28.2,254,28.2S479.8,129.5,479.8,254S378.5,479.8,254,479.8z"/> </g> </g> <g> <g> <path d="M254,56.4C145.1,56.4,56.4,145.1,56.4,254S145.1,451.6,254,451.6S451.6,363,451.6,254S362.9,56.4,254,56.4z M254,423.3 c-93.4,0-169.3-76-169.3-169.3S160.6,84.7,254,84.7s169.3,76,169.3,169.3S347.4,423.3,254,423.3z"/> </g> </g> <g> <g> <path d="M326.3,239.9h-58.2V129.5c0-7.8-6.3-14.1-14.1-14.1c-7.8,0-14.1,6.3-14.1,14.1v110.3H231c-7.8,0-14.1,6.3-14.1,14.1 c0,7.8,6.3,14.1,14.1,14.1h8.9v6.1c0,7.8,6.3,14.1,14.1,14.1c7.8,0,14.1-6.3,14.1-14.1V268h58.2c7.8,0,14.1-6.3,14.1-14.1 C340.4,246.2,334.1,239.9,326.3,239.9z"/> </g> </g> </g>
</svg>