<!DOCTYPE svg PUBLIC "-//W3C//DTD SVG 1.1//EN" "http://www.w3.org/Graphics/SVG/1.1/DTD/svg11.dtd">
<!-- Uploaded to: SVG Repo, www.svgrepo.com, Transformed by: SVG Repo Mixer Tools -->
<svg fill="#000000" height="64px" width="64px" version="1.1" id="Layer_1" xmlns="http://www.w3.org/2000/svg" xmlns:xlink="http://www.w3.org/1999/xlink" viewBox="0 0 508 508" xml:space="preserve">
<g id="SVGRepo_bgCarrier" stroke-width="0"/>
<g id="SVGRepo_tracerCarrier" stroke-linecap="round" stroke-linejoin="round"/>
<g id="SVGRepo_iconCarrier"> <g> <g> <path d="M465.7,0H42.3C19,0,0,19,0,42.3v318.9c0,23.3,19,42.3,42.3,42.3H195v24l-58.7,52.3h-35c-7.8,0-14.1,6.3-14.1,14.1 c0,7.8,6.3,14.1,14.1,14.1h305.5c7.8,0,14.1-6.3,14.1-14.1s-6.3-14.1-14.1-14.1h-35L313,427.5v-23.9h152.7 c23.3,0,42.3-19,42.3-42.3v-319C508,19,489,0,465.7,0z M28.2,42.3c0-7.8,6.3-14.1,14.1-14.1h423.3c7.8,0,14.1,6.3,14.1,14.1v262.6 h-28.1V70.6c0-7.8-6.3-14.1-14.1-14.1H70.6c-7.8,0-14.1,6.3-14.1,14.1V305H28.2V42.3z M108,194H84.7v-28.2h51.6 c7.8,0,14.1-6.3,14.1-14.1c0-7.8-6.3-14.1-14.1-14.1H84.7V84.7h338.7V305H84.7v-82.7H108c7.8,0,14.1-6.3,14.1-14.1 C122.1,200.3,115.8,194,108,194z M329.3,479.8H178.7l39.8-35.4c3-2.7,4.7-6.5,4.7-10.5v-30.3h61.6v30.3c0,4.4,2.1,8.4,5.3,11 L329.3,479.8z M479.8,361.2L479.8,361.2c0,7.8-6.3,14.1-14.1,14.1h-35.6v-9.7c0-7.8-6.3-14.1-14.1-14.1c-7.8,0-14.1,6.3-14.1,14.1 v9.7h-28.2v-9.7c0-7.8-6.3-14.1-14.1-14.1s-14.1,6.3-14.1,14.1v9.7H42.3c-7.8,0-14.1-6.3-14.1-14.1v-28.1h451.6V361.2z"/> </g> </g> </g>
</svg>