<!DOCTYPE svg PUBLIC "-//W3C//DTD SVG 1.1//EN" "http://www.w3.org/Graphics/SVG/1.1/DTD/svg11.dtd">
<!-- Uploaded to: SVG Repo, www.svgrepo.com, Transformed by: SVG Repo Mixer Tools -->
<svg fill="#000000" height="64px" width="64px" version="1.1" id="Layer_1" xmlns="http://www.w3.org/2000/svg" xmlns:xlink="http://www.w3.org/1999/xlink" viewBox="0 0 508 508" xml:space="preserve">
<g id="SVGRepo_bgCarrier" stroke-width="0"/>
<g id="SVGRepo_tracerCarrier" stroke-linecap="round" stroke-linejoin="round"/>
<g id="SVGRepo_iconCarrier"> <g> <g> <path d="M318.9,128.5c-9.7,0-27.8,5.8-45.1,14.1c6.8-24.5,7.7-51.4,7.7-51.8c0-23.6-22.5-42.1-51.3-42.1s-51.3,18.5-51.3,42.1 c0,9,5.7,27.4,14.2,45.3c-24.5-6.8-51.3-7.6-51.7-7.6c-23.6,0-42.1,22.5-42.1,51.3s18.5,51.3,42.1,51.3c9.7,0,27.8-5.8,45-14.1 c-6.7,24.4-7.5,51-7.5,51.4c0,23.6,22.5,42.1,51.3,42.1s51.2-18.5,51.2-42.1c0-9.6-5.8-27.7-14-44.9c24.4,6.8,51.1,7.6,51.5,7.6 c23.6,0,42.1-22.5,42.1-51.3S342.5,128.5,318.9,128.5z M195.7,179.2c-17.1,12.6-47,23.6-54.3,23.7c-6.6,0-13.9-9.9-13.9-23.1 s7.3-23.1,13.9-23.1c15,0,42.9,4.9,56.6,10.8C197.9,167.7,195.7,173.7,195.7,179.2z M230.1,282.3c-13.1,0-23-7.3-23-13.9 c0-15,4.9-42.6,10.7-56.4c3.7,1.5,7.8,2.3,11.9,2.3c12.6,17.2,23.5,46.9,23.5,54.1C253.2,275,243.3,282.3,230.1,282.3z M223.8,179.6c0-3.5,2.8-6.3,6.3-6.3c3.5,0.1,6.3,2.9,6.3,6.3c0,3.5-2.8,6.3-6.3,6.3S223.8,183.1,223.8,179.6z M242.5,147.5 c-3.6-1.4-7.5-2.2-11.6-2.3c-12.7-17.1-23.7-47-23.7-54.3c-0.1-6.6,9.8-13.9,23-13.9s23.1,7.3,23.1,13.9 C253.3,106,248.4,133.9,242.5,147.5z M319,202.9c-15,0-42.9-4.9-56.6-10.8c1.4-3.7,2.2-7.6,2.3-11.7c17.1-12.6,47-23.6,54.3-23.7 c6.6,0,13.9,9.9,13.9,23.1S325.6,202.9,319,202.9z"/> </g> </g> <g> <g> <path d="M443.4,402.2c-35.3,0-85.7,12.6-109,19c0,0-2.6-12-14.3-12h-28.8l-10.8-57.1c74.7-21.8,129.4-90.8,129.4-172.4 C409.8,80.6,329.2,0,230.2,0S50.5,80.6,50.5,179.6c0,81.6,54.7,150.7,129.4,172.4l-10.8,57.1h-28.8c-5.8,0-11.1,3.6-13.2,9 L100,488.8c-1.7,4.3-1.2,19.2,13.2,19.2h234h0.1c17.6,0,13.5-18.9,12.4-20.9l-15.1-39.4c23.1-6.2,68.4-17.3,98.8-17.3 c7.8,0,14.1-6.3,14.1-14.1C457.5,408.5,451.1,402.2,443.4,402.2z M78.8,179.6c0-83.5,67.9-151.4,151.4-151.4 s151.4,67.9,151.4,151.4S313.7,331,230.2,331S78.8,263.1,78.8,179.6z M262.5,409.2h-64.6l9.8-51.4c7.4,0.9,14.9,1.5,22.6,1.5 c7.6,0,15.2-0.5,22.6-1.5L262.5,409.2z M133.7,479.8l16.3-42.3h160.3l16.3,42.3H133.7z"/> </g> </g> </g>
</svg>