<!DOCTYPE svg PUBLIC "-//W3C//DTD SVG 1.1//EN" "http://www.w3.org/Graphics/SVG/1.1/DTD/svg11.dtd">
<!-- Uploaded to: SVG Repo, www.svgrepo.com, Transformed by: SVG Repo Mixer Tools -->
<svg fill="#000000" height="64px" width="64px" version="1.1" id="Layer_1" xmlns="http://www.w3.org/2000/svg" xmlns:xlink="http://www.w3.org/1999/xlink" viewBox="0 0 508.1 508.1" xml:space="preserve">
<g id="SVGRepo_bgCarrier" stroke-width="0"/>
<g id="SVGRepo_tracerCarrier" stroke-linecap="round" stroke-linejoin="round"/>
<g id="SVGRepo_iconCarrier"> <g> <g> <path d="M502.8,198.85L370.4,62.75c-2.7-2.7-6.3-4.3-10.1-4.3h-54.6v-44.3c0-7.8-6.3-14.1-14.1-14.1h-75.2 c-7.8,0-14.1,6.3-14.1,14.1v44.3h-54.6c-3.8,0-7.5,1.5-10.1,4.3L4,199.95c-0.1,0.1-4,6.1-4,9.8v122.6c0,7.8,6.3,14.1,14.1,14.1 h135.1c6.9,51.7,51.2,91.7,104.8,91.7s97.8-40,104.8-91.7h135.1c7.8,0,14.1-6.3,14.1-14.1c0,0,0.1-122.1,0.1-122.6 C508,205.35,506,201.45,502.8,198.85z M230.4,28.25h47v30.2h-47V28.25z M153.6,86.75h200.7l106,109H47.5L153.6,86.75z M253.9,409.95c-38,0-69.6-27.4-76.2-63.5h152.5C323.5,382.55,291.9,409.95,253.9,409.95z M479.6,318.25H28.2v-94.4h451.4V318.25z "/> </g> </g> <g> <g> <path d="M254,458.75c-7.8,0-14.1,6.3-14.1,14.1v21.1c0,7.8,6.3,14.1,14.1,14.1s14.1-6.3,14.1-14.1v-21.1 C268.1,465.05,261.8,458.75,254,458.75z"/> </g> </g> <g> <g> <path d="M378.2,436.65l-14.9-14.9c-5.5-5.5-14.4-5.5-19.9,0s-5.5,14.4,0,20l14.9,14.9c5.8,5.8,14.6,5.3,19.9,0 C383.7,451.15,383.7,442.25,378.2,436.65z"/> </g> </g> <g> <g> <path d="M164.6,421.75c-5.4-5.6-14.3-5.6-19.9,0l-14.9,14.9c-5.5,5.5-5.5,14.4,0,20c5.3,5.3,14.2,5.8,19.9,0l14.9-14.9 C170.1,436.25,170.1,427.35,164.6,421.75z"/> </g> </g> </g>
</svg>